<?xml version="1.0" encoding="UTF-8" standalone="no"?>
<!-- Created with Inkscape (http://www.inkscape.org/) -->

<svg
   version="1.1"
   id="svg1"
   width="128"
   height="128"
   viewBox="0 0 128 128"
   sodipodi:docname="icon.svg"
   inkscape:export-filename="avatar.png"
   inkscape:export-xdpi="768"
   inkscape:export-ydpi="768"
   inkscape:version="1.4 (e7c3feb100, 2024-10-09)"
   xmlns:inkscape="http://www.inkscape.org/namespaces/inkscape"
   xmlns:sodipodi="http://sodipodi.sourceforge.net/DTD/sodipodi-0.dtd"
   xmlns="http://www.w3.org/2000/svg"
   xmlns:svg="http://www.w3.org/2000/svg">
  <defs
     id="defs1" />
  <sodipodi:namedview
     id="namedview1"
     pagecolor="#ffffff"
     bordercolor="#000000"
     borderopacity="0.25"
     inkscape:showpageshadow="2"
     inkscape:pageopacity="0.0"
     inkscape:pagecheckerboard="0"
     inkscape:deskcolor="#d1d1d1"
     inkscape:zoom="2.875"
     inkscape:cx="68.869565"
     inkscape:cy="34.956522"
     inkscape:window-width="1920"
     inkscape:window-height="1131"
     inkscape:window-x="0"
     inkscape:window-y="32"
     inkscape:window-maximized="1"
     inkscape:current-layer="g1" />
  <g
     inkscape:groupmode="layer"
     inkscape:label="Image"
     id="g1">
    <g
       id="g4"
       transform="matrix(0.80513258,0,0,0.80513258,12.627108,0)">
      <g
         id="g2"
         transform="matrix(0.06813586,0,0,0.06813586,54.531006,113.14449)">
        <path
           fill="#2fb44a"
           d="m -799.75,275.858 h 1871.77 v 396.85 H -799.75 Z"
           id="path2" />
        <text
           x="-653.95599"
           y="575.21796"
           fill="#ffffff"
           font-family="CenturyGothic, 'Century Gothic', sans-serif"
           font-size="266.667px"
           id="text2">I<tspan
   x="-513.66901 -271.03903 -87.519005 165.78104 418.31094"
   y="575.21796 575.21796 575.21796 575.21796 575.21796"
   id="tspan2">nsect</tspan></text>
        <text
           x="588.67108"
           y="575.21796"
           fill="#c9da2b"
           font-family="CenturyGothic, 'Century Gothic', sans-serif"
           font-size="266.667px"
           id="text3">A<tspan
   x="865.9411"
   y="575.21796"
   id="tspan3">I</tspan></text>
        <g
           stroke-width="12.5"
           id="g8"
           transform="translate(-1088.701,-662.966)">
    <path
   fill="none"
   stroke="#c9da2b"
   d="M 1418.5,458.084 H 942.504 c -13.156,0 -25.774,-5.227 -35.077,-14.53 L 817.322,353.449 M 1418.5,524.239 H 595.352 c -7.446,0 -14.796,-1.677 -21.506,-4.905 -31.839,-15.317 -127.314,-61.25 -127.314,-61.25 M 1418.5,590.393 H 477.633 c -7.167,0 -14.25,1.554 -20.759,4.553 -32.451,14.952 -133.694,61.602 -133.694,61.602 m 1095.32,0 H 685.148 m 737.302,66.155 H 891.389 c -13.157,0 -25.774,5.227 -35.077,14.53 -24.409,24.408 -71.003,71.003 -71.003,71.003"
   id="path3" />

    <g
   fill="#ffffff"
   stroke="#2fb44a"
   id="g7">
      <circle
   cx="817.86401"
   cy="353.44901"
   r="34.233002"
   id="circle3" />

      <circle
   cx="443.48099"
   cy="458.08401"
   r="34.233002"
   id="circle4" />

      <circle
   cx="323.18399"
   cy="656.54797"
   r="34.233002"
   id="circle5" />

      <circle
   cx="679.375"
   cy="656.54797"
   r="34.233002"
   id="circle6" />

      <circle
   cx="783.63098"
   cy="808.23602"
   r="34.233002"
   id="circle7" />

    </g>

  </g>
        <g
           stroke-width="12.5"
           id="g13"
           transform="translate(-1088.701,-662.966)">
    <path
   fill="none"
   stroke="#c9da2b"
   d="m 1031.17,458.084 h 475.996 c 13.156,0 25.774,-5.227 35.077,-14.53 l 90.105,-90.105 m -601.178,170.79 h 823.148 c 7.446,0 14.797,-1.677 21.506,-4.905 31.839,-15.317 127.314,-61.25 127.314,-61.25 M 1031.17,590.393 h 940.867 c 7.168,0 14.25,1.554 20.76,4.553 32.45,14.952 133.693,61.602 133.693,61.602 m -1095.32,0 h 733.352 m -737.302,66.155 h 531.062 c 13.156,0 25.774,5.227 35.077,14.53 l 71.003,71.003"
   id="path8" />

    <g
   fill="#ffffff"
   stroke="#2fb44a"
   id="g12">
      <circle
   cx="1637.7"
   cy="353.44901"
   r="34.233002"
   id="circle8" />

      <circle
   cx="2007.4399"
   cy="455.22198"
   r="34.233002"
   id="circle9" />

      <circle
   cx="2126.49"
   cy="653.68597"
   r="34.233002"
   id="circle10" />

      <circle
   cx="1764.03"
   cy="655.99701"
   r="34.233002"
   id="circle11" />

      <circle
   cx="1664.64"
   cy="808.23602"
   r="34.233002"
   id="circle12" />

    </g>

  </g>
        <circle
           cx="136.13896"
           cy="-73.124023"
           r="264.62"
           fill="#2fb44a"
           id="circle13" />
        <path
           fill="#ffffff"
           fill-rule="nonzero"
           d="m 281.819,-104.917 h 38.884 v -11.907 h -44.469 l -29.769,35.722 h -24.333 c -17.016,-16.837 -30.959,-32.561 -32.257,-45.665 l 3.006,-6.514 c 1.804,-3.917 2.763,-8.258 2.781,-12.568 l 41.277,-14.218 6.085,-60.907 33.859,-28.209 -7.627,-9.145 -37.586,31.329 -5.822,58.168 -32.514,11.199 c -1.197,-2.869 -2.911,-5.435 -4.882,-7.781 4.239,-1.834 7.222,-6.049 7.222,-10.949 0,-16.415 -13.355,-29.769 -29.769,-29.769 h -5.954 c -0.28,0 -0.542,0.065 -0.821,0.083 -0.822,-3.221 -2.305,-6.144 -4.287,-8.692 l 4.93,-19.713 -11.551,-2.894 -3.739,14.944 c -2.602,-0.982 -5.4,-1.589 -8.347,-1.589 -2.947,0 -5.745,0.607 -8.353,1.589 l -3.739,-14.944 -11.544,2.894 4.929,19.713 c -1.988,2.548 -3.465,5.471 -4.286,8.692 -0.28,-0.018 -0.542,-0.083 -0.822,-0.083 h -5.954 c -16.414,0 -29.769,13.354 -29.769,29.769 0,4.9 2.983,9.115 7.222,10.943 -1.97,2.346 -3.685,4.912 -4.882,7.781 l -32.513,-11.199 -5.823,-58.168 -37.586,-31.329 -7.633,9.145 33.859,28.209 6.085,60.907 41.277,14.218 c 0.024,4.31 0.977,8.645 2.781,12.568 l 3.006,6.514 c -1.298,13.098 -15.241,28.822 -32.257,45.665 H 25.801 L -3.968,-116.83 h -44.463 v 11.907 H -9.547 L 20.222,-69.2 h 17.677 c -29.305,28.28 -62.515,60.329 -62.515,95.266 0,49.208 22.666,59.538 41.677,59.538 7.906,0 19.766,-4.489 32.454,-12.342 l 2.911,11.651 -10.925,21.844 10.651,5.329 L 65.042,86.3 59.999,66.117 c 10.146,-7.555 20.279,-17.01 28.894,-27.864 3.894,10.294 8.675,19.029 14.283,26.042 7.805,9.758 19.808,15.355 32.996,15.355 13.116,0 25.119,-5.597 32.924,-15.355 5.603,-7.007 10.372,-15.759 14.265,-26.059 8.616,10.859 18.755,20.32 28.912,27.881 l -5.043,20.183 12.89,25.786 10.651,-5.329 -10.925,-21.844 2.912,-11.651 c 12.687,7.853 24.547,12.342 32.454,12.342 19.01,0 41.676,-10.33 41.676,-59.538 0,-34.937 -33.21,-66.986 -62.515,-95.26 h 17.677 z m -174.856,-59.538 v -0.059 c 7.573,-0.256 13.908,-5.228 16.247,-12.086 v 0.238 h 25.864 v -0.238 c 2.334,6.852 8.668,11.83 16.247,12.086 v 0.059 c 10.175,0 18.457,8.282 18.457,18.457 0,2.65 -0.589,5.323 -1.697,7.734 l -25.994,56.317 c -3.584,7.746 -11.413,12.753 -19.951,12.753 -8.538,0 -16.367,-5.007 -19.939,-12.759 l -25.994,-56.311 c -1.108,-2.411 -1.697,-5.09 -1.697,-7.734 0,-10.175 8.282,-18.457 18.457,-18.457 z m 52.988,142.891 h -47.63 c -0.375,-18.975 -1.762,-40.861 -3.019,-49.071 6.329,8.246 16.189,13.348 26.834,13.348 10.645,0 20.505,-5.102 26.834,-13.348 -1.262,8.21 -2.644,30.096 -3.019,49.071 z m -47.63,0 h 47.63 c 0,8.168 1.387,16.135 3.781,23.815 H 108.54 c 2.394,-7.68 3.781,-15.647 3.781,-23.815 z m 53.584,-172.659 c 9.847,0 17.861,8.013 17.867,17.861 h -17.867 c -3.287,0 -5.954,-2.673 -5.954,-5.954 v -11.907 z m -17.861,-5.954 v 11.907 h -23.815 v -11.907 c 0,-6.567 5.34,-11.908 11.907,-11.908 6.567,0 11.908,5.341 11.908,11.908 z m -41.677,5.954 h 5.954 v 11.907 c 0,3.281 -2.667,5.954 -5.954,5.954 H 88.506 c 0,-9.848 8.014,-17.861 17.861,-17.861 z M 17.061,73.696 c -12.777,0 -29.769,-4.935 -29.769,-47.63 0,-29.888 31.287,-60.074 58.895,-86.705 17.843,-17.218 34.013,-32.823 42.343,-47.898 -2.62,18.135 8.091,33.865 8.532,36.646 1.565,9.984 3.351,21.296 3.351,50.327 0,51.321 -63.538,95.26 -83.352,95.26 z M 136.1,67.742 c -9.335,0 -18.171,-4.072 -23.624,-10.883 -1.697,-2.126 -9.234,-16.373 -10.771,-18.885 h 68.856 c -1.53,2.512 -9.074,16.759 -10.777,18.879 -5.441,6.817 -14.277,10.889 -23.684,10.889 z m 34.461,-29.768 h -68.856 c -1.553,-3.686 -3,-7.597 -4.292,-11.813 2.417,-3.882 9.21,-19.79 11.127,-23.91 h 55.192 c 1.911,4.114 8.71,20.022 11.121,23.892 -1.297,4.222 -2.738,8.145 -4.292,11.831 z M 284.98,26.066 c 0,42.695 -16.992,47.63 -29.768,47.63 -19.815,0 -83.353,-43.939 -83.353,-95.26 0,-29.031 1.786,-40.343 3.352,-50.327 0.44,-2.787 11.151,-18.511 8.531,-36.646 8.336,15.075 24.5,30.68 42.344,47.898 27.607,26.631 58.894,56.817 58.894,86.705 z"
           id="path13" />
      </g>
      <g
         id="g3"
         transform="matrix(0.79590065,-0.44188178,0.44188178,0.79590065,-30.956788,-14.539224)">
        <ellipse
           style="fill:#464655;stroke-width:0.186574"
           cx="-42.898033"
           cy="62.845432"
           rx="8.955471"
           ry="5.9703898"
           id="ellipse1"
           transform="matrix(0.65130115,-0.75881936,0.75887323,0.65123838,0,0)" />
        <ellipse
           style="fill:#ff695f;stroke-width:0.186574"
           cx="-42.898033"
           cy="104.63798"
           rx="28.358807"
           ry="35.822151"
           id="ellipse2"
           transform="matrix(0.65130115,-0.75881936,0.75887323,0.65123838,0,0)" />
        <ellipse
           style="fill:#f0ebe1;stroke-width:0.186574"
           cx="-48.868153"
           cy="79.264"
           id="circle2"
           transform="matrix(0.65130115,-0.75881936,0.75887323,0.65123838,0,0)"
           rx="2.985157"
           ry="2.9851949" />
        <ellipse
           style="fill:#f0ebe1;stroke-width:0.186574"
           cx="-36.927711"
           cy="79.264"
           id="circle3-9"
           transform="matrix(0.65130115,-0.75881936,0.75887323,0.65123838,0,0)"
           rx="2.985157"
           ry="2.9851949" />
        <ellipse
           style="fill:#464655;stroke-width:0.186574"
           cx="-53.83194"
           cy="106.13056"
           id="circle4-1"
           transform="matrix(0.65130115,-0.75881936,0.75887323,0.65123838,0,0)"
           rx="4.4777355"
           ry="4.4777923" />
        <path
           style="fill:#464655;stroke-width:0.186574"
           d="m 53.078271,126.32051 c -1.12146,1.30659 -1.337595,3.06779 -0.744018,4.56453 2.663132,0.5654 5.311122,0.82304 7.885455,0.77259 1.19909,-1.85166 0.893696,-4.34216 -0.827004,-5.8188 -1.87673,-1.61055 -4.703755,-1.39489 -6.314433,0.48168 z"
           id="path4" />
        <path
           style="fill:#464655;stroke-width:0.186574"
           d="m 32.199558,116.27047 c 1.073826,-1.2511 0.929909,-3.13566 -0.32115,-4.20927 -1.251199,-1.07374 -3.135794,-0.92998 -4.20962,0.32112 -0.477919,0.55681 -0.701083,1.23907 -0.706208,1.91938 0.750042,1.00334 1.55154,1.98569 2.406399,2.94254 1.017908,0.19596 2.107201,-0.13098 2.830579,-0.97377 z"
           id="path5" />
        <ellipse
           style="fill:#464655;stroke-width:0.186574"
           cx="-41.891499"
           cy="82.249191"
           id="circle5-2"
           transform="matrix(0.65130115,-0.75881936,0.75887323,0.65123838,0,0)"
           rx="4.4777355"
           ry="4.4777923" />
        <ellipse
           style="fill:#464655;stroke-width:0.186574"
           cx="-29.950867"
           cy="106.13056"
           id="circle6-7"
           transform="matrix(0.65130115,-0.75881936,0.75887323,0.65123838,0,0)"
           rx="4.4777355"
           ry="4.4777923" />
        <path
           style="fill:#464655;stroke-width:0.186574"
           d="m 78.35322,96.873115 c 1.121461,-1.306594 2.829755,-1.787516 4.399339,-1.427906 0.962898,2.546323 1.619259,5.124361 1.959908,7.676351 -1.648487,1.466 -4.156822,1.5421 -5.877523,0.0655 -1.87673,-1.61055 -2.092279,-4.437476 -0.481724,-6.313905 z"
           id="path6" />
        <path
           style="fill:#464655;stroke-width:0.186574"
           d="m 65.251452,77.762295 c -1.073704,1.250954 -2.958563,1.394735 -4.209622,0.321121 -1.251199,-1.073735 -1.394853,-2.958315 -0.321148,-4.209269 0.477918,-0.556813 1.11848,-0.880872 1.790314,-0.989277 1.105471,0.589238 2.19812,1.232376 3.273771,1.931981 0.348241,0.976177 0.190184,2.102508 -0.533315,2.945444 z"
           id="path7" />
        <path
           style="fill:#6b676e;stroke-width:0.186574"
           d="M 39.346989,66.692518 C 30.524906,64.36653 28.177708,63.663634 19.752846,73.47929 c -8.424862,9.815657 -7.374104,12.029013 -3.736449,20.395286 0.613361,1.41095 2.778841,0.581853 5.057016,0.02108 8.294454,-5.841713 14.785097,-13.134283 19.061534,-22.208255 0.208747,-2.33669 0.699823,-4.602699 -0.787958,-4.994879 z"
           id="path8-0" />
        <path
           style="fill:#f0ebe1;stroke-width:0.186574"
           d="m 13.600294,87.509774 c 1.7203,0.666704 3.741234,0.237478 5.011184,-1.242119 1.610679,-1.876573 1.395007,-4.703358 -0.481723,-6.313902 -0.746868,-0.640936 -1.644597,-0.980352 -2.555991,-1.053189 -2.218636,3.420511 -2.64019,5.803467 -1.97347,8.60921 z"
           id="path9" />
        <path
           style="fill:#f0ebe1;stroke-width:0.186574"
           d="m 24.477759,68.526678 c 0.210254,0.889723 0.681951,1.7255 1.42882,2.366437 1.87673,1.610543 4.703753,1.394889 6.314432,-0.481684 1.269951,-1.479596 1.387678,-3.542086 0.467673,-5.141201 -2.874522,-0.233471 -5.16615,0.544652 -8.210925,3.256448 z"
           id="path10" />
        <path
           d="m 72.863117,62.018932 c -2.53893,2.958062 -3.051604,6.224359 -3.036684,8.436819 -1.962775,-0.752593 -4.740723,-1.855138 -6.337248,-2.654592 -3.312595,-1.65872 -5.975006,0.163 -7.020057,1.834614 -4.012233,-1.396176 -8.145029,-2.137106 -12.250229,-2.162518 -0.834778,-0.0051 -1.650445,0.172602 -2.399569,0.507988 -0.138502,-1.258642 -0.655873,-2.353161 -2.091817,-2.73183 l -0.182551,-0.04799 c -0.538372,-0.141911 -1.053518,-0.277656 -1.551159,-0.406 0.660752,-2.111057 1.545985,-5.804543 -1.554618,-8.465371 l -7.405684,-6.355298 c 2.301064,-1.460879 5.885754,-4.518692 7.550625,-10.051814 0.23748,-0.789455 -0.210136,-1.621778 -0.999396,-1.859257 -0.789521,-0.23746 -1.622072,0.209733 -1.859409,0.999311 -2.069502,6.87884 -7.626023,9.139895 -7.85596,9.230469 -0.490395,0.188633 -0.844928,0.621458 -0.934563,1.139258 -0.08925,0.517638 0.100309,1.044175 0.498876,1.386211 l 9.061538,7.776294 c 1.645518,1.412126 1.25143,3.405861 0.583695,5.5156 -2.271383,-0.451476 -4.181058,-0.556653 -6.144031,0.0027 -0.909742,0.259256 -1.800705,0.650178 -2.726383,1.213893 -1.42325,-0.736069 -2.939398,-1.043922 -4.486357,-0.921416 -0.157863,-2.358736 -0.86833,-4.953952 -1.836878,-6.464422 -0.44487,-0.694008 -1.368083,-0.895734 -2.062288,-0.451023 -0.69336,0.445442 -0.895792,1.368232 -0.450941,2.061975 0.764614,1.19262 1.355346,3.638864 1.396488,5.600194 -0.0065,0.0028 -0.01285,0.005 -0.0195,0.0078 -2.418217,1.038763 -4.064458,2.764839 -4.660003,3.458698 -0.595544,0.693857 -2.05206,2.582749 -2.712056,5.130356 -0.0017,0.0069 -0.003,0.01345 -0.0048,0.02046 -1.9451756,0.25674 -4.4527832,0.0441 -5.7476866,-0.530688 -0.753517,-0.334406 -1.6350782,0.0046 -1.9698774,0.758477 -0.334295,0.753575 0.00514,1.635163 0.7586788,1.969834 1.6400389,0.728129 4.313212,1.03663 6.6687912,0.834846 0.11357,1.54751 0.647737,2.999166 1.591389,4.294292 -0.416817,1.000401 -0.668093,1.940281 -0.786366,2.878748 -0.255299,2.024824 0.138356,3.896285 0.929347,6.07283 -1.984184,0.980251 -3.8952506,1.671923 -5.5407682,0.259798 L -1.7858656,82.53193 c -0.3985665,-0.342035 -0.9478102,-0.44951 -1.4459622,-0.282777 -0.4984132,0.166755 -0.8720395,0.58344 -0.9843975,1.096489 -0.013274,0.06015 -1.3908779,6.049515 -7.9326987,9.164616 -0.744075,0.35471 -1.060132,1.245145 -0.705766,1.989328 0.354357,0.744176 1.245146,1.060167 1.989498,0.705706 5.2175211,-2.484856 7.6960562,-6.491196 8.790782,-8.987553 l 7.4059668,6.35554 c 3.1006029,2.660829 6.6173652,1.225629 8.6039322,0.252341 0.202362,0.472373 0.41469,0.960918 0.636639,1.471488 l 0.07525,0.173005 c 0.592023,1.361903 1.752309,1.707091 3.017761,1.65303 -0.218034,0.791145 -0.26984,1.624388 -0.138148,2.448657 0.647861,4.0535 2.007225,8.02599 3.995854,11.77955 -1.493676,1.28735 -2.890649,4.19429 -0.748625,7.21654 1.032455,1.45664 2.54373,4.03496 3.585423,5.86069 -2.189161,0.321 -5.3403,1.32306 -7.879229,4.28112 -0.536852,0.62547 -0.464955,1.56783 0.160573,2.10463 0.625531,0.53681 1.567961,0.46492 2.104813,-0.16056 3.226946,-3.75966 7.76112,-3.38381 7.945677,-3.3668 0.490103,0.0503 0.969048,-0.14444 1.284864,-0.51239 0.03998,-0.0466 0.07723,-0.096 0.111772,-0.14797 0.306607,-0.46264 0.331105,-1.05724 0.06351,-1.54356 -0.126926,-0.23111 -3.134231,-5.69083 -4.941885,-8.24124 -0.888934,-1.25432 -0.514464,-2.2409 -0.124097,-2.79369 2.361325,3.75132 5.369288,7.23567 8.939819,10.29978 3.245163,2.78488 6.781135,5.0648 10.472194,6.78647 -0.373253,1.13957 -0.826758,2.74992 -0.05814,4.23437 0.50482,0.97508 1.428249,1.67214 2.744714,2.0717 2.454956,0.74521 9.304171,2.79157 12.460217,3.73376 -1.27648,3.16646 -3.3614,10.14147 1.075215,13.94882 0.625531,0.53681 1.567956,0.46491 2.104808,-0.16056 0.536851,-0.62548 0.464961,-1.56783 -0.16057,-2.10464 -3.889811,-3.33809 0.320589,-11.86074 0.363544,-11.94459 0.203415,-0.39484 0.220484,-0.8596 0.04627,-1.26824 -0.174068,-0.40851 -0.520826,-0.71837 -0.946504,-0.8452 -0.108454,-0.0324 -10.865422,-3.24139 -14.075804,-4.21595 -0.355304,-0.10798 -0.810368,-0.29739 -0.960753,-0.58798 -0.19164,-0.36999 -0.02209,-1.07858 0.167033,-1.69023 4.019225,1.54157 8.17822,2.42987 12.313039,2.5938 9.088373,0.36026 16.977583,-2.80152 22.214261,-8.90268 5.236678,-6.10116 7.16562,-14.37833 5.430591,-23.30584 -0.789275,-4.061765 -2.298133,-8.037408 -4.431833,-11.77606 0.575794,-0.279826 1.250526,-0.55489 1.64548,-0.42149 0.309934,0.104694 0.56632,0.525581 0.726958,0.860363 1.450363,3.025128 6.2542,13.170057 6.302747,13.272207 0.189757,0.40083 0.548506,0.69615 0.978343,0.80639 0.429717,0.11037 0.886715,0.0234 1.246117,-0.23636 0.07762,-0.0561 7.863651,-5.510241 11.753463,-2.17214 0.62553,0.53681 1.56796,0.46491 2.10481,-0.16057 0.53685,-0.62547 0.46496,-1.56782 -0.16057,-2.104627 C 100.94447,95.951275 94.365873,99.06997 91.429294,100.81179 90.01917,97.835455 86.957329,91.376492 85.84827,89.063196 85.253743,87.822806 84.424469,87.015762 83.384013,86.664741 81.80003,86.130264 80.276858,86.82291 79.20712,87.364538 76.945317,83.977667 74.155204,80.828762 70.91004,78.043877 67.339368,74.979651 63.438778,72.53557 59.371953,70.770724 c 0.487212,-0.469671 1.405778,-0.989579 2.78041,-0.301136 2.795325,1.399696 8.648505,3.543733 8.896217,3.634124 0.521321,0.190708 1.105369,0.0763 1.516185,-0.296919 0.04614,-0.04202 0.08935,-0.08632 0.12933,-0.132899 0.315817,-0.367953 0.435699,-0.870861 0.311598,-1.347614 -0.01179,-0.04528 -1.138544,-4.564077 2.122791,-8.3638 0.536849,-0.625473 0.464958,-1.56783 -0.16057,-2.104636 -0.625531,-0.536809 -1.567799,-0.464531 -2.104774,0.161089 z m -11.202334,13.22839 c 0.728604,0.399815 1.448492,0.82411 2.158388,1.270068 0.01539,0.373384 -0.106738,0.746277 -0.355843,1.036504 -0.536001,0.624485 -1.480273,0.696517 -2.104812,0.16056 -0.624537,-0.535956 -0.696575,-1.480149 -0.160574,-2.104634 0.131723,-0.153468 0.2868,-0.274846 0.462841,-0.362498 z M 29.753155,66.984183 c 0.799406,-0.227817 1.623544,-0.296243 2.527445,-0.247045 -0.473116,1.256207 -1.498344,2.558105 -2.794075,3.039046 -1.086384,0.403183 -2.221058,0.166519 -3.378305,-0.698993 1.353323,-1.116957 2.516204,-1.771403 3.644935,-2.093008 z m -13.398509,3.579138 c 0.376696,-0.438882 3.428843,-3.831024 7.047163,-3.095698 -1.395972,1.256884 -2.946782,2.901852 -4.781777,5.039772 -1.834993,2.137919 -3.225812,3.920189 -4.256491,5.490554 -1.275758,-3.464604 1.614409,-6.995747 1.991105,-7.434628 z M 14.849368,84.34832 c 0.146809,-1.164505 0.617211,-2.412967 1.516041,-3.919953 1.031116,1.012464 1.437186,2.098012 1.203435,3.232895 -0.27914,1.353344 -1.410557,2.564114 -2.580281,3.22252 -0.18577,-0.886166 -0.243128,-1.710815 -0.139195,-2.535462 z m 2.460553,8.757984 c -0.426538,-0.980919 -0.810879,-1.864903 -1.143577,-2.677281 -0.01145,-0.04424 -0.02156,-0.08832 -0.03722,-0.132244 -0.03099,-0.08707 -0.0703,-0.168751 -0.114833,-0.246061 -0.03774,-0.0941 -0.07668,-0.189962 -0.112689,-0.28208 1.032846,-0.480597 2.091224,-1.240455 2.944137,-2.234168 0.77976,-0.908485 1.387643,-2.01118 1.647195,-3.270946 0.472373,-2.292631 -0.392239,-4.535797 -2.430269,-6.330246 0.776765,-1.036198 1.710301,-2.18543 2.823256,-3.482114 1.112953,-1.296683 2.10737,-2.393673 3.013827,-3.318568 2.083132,1.742188 4.431541,2.256322 6.626174,1.441673 1.205916,-0.447626 2.203608,-1.215557 2.98349,-2.124184 0.852911,-0.993711 1.443751,-2.155043 1.761886,-3.248734 0.09666,0.02173 0.197187,0.04555 0.295933,0.06858 0.08318,0.03229 0.169877,0.05875 0.260652,0.07617 0.04579,0.0088 0.09104,0.01224 0.136372,0.01672 0.853512,0.205587 1.785782,0.451475 2.819995,0.724118 l 0.05848,0.01552 c 0.120029,0.451134 -0.0071,1.64311 -0.09349,2.453058 -0.02608,0.244374 -0.0508,0.494331 -0.0749,0.743843 -1.789553,4.08106 -4.410887,8.191039 -7.59421,11.899873 -3.183321,3.708831 -6.848694,6.923099 -10.611276,9.310728 -0.24285,0.06179 -0.486184,0.124144 -0.723792,0.186988 -0.787658,0.208399 -1.946392,0.51483 -2.410692,0.464513 z m 10.547884,21.524266 c 0.05994,-0.18729 0.1564,-0.35897 0.288121,-0.51244 0.536002,-0.62448 1.480274,-0.69651 2.104811,-0.16056 0.624539,0.53596 0.696577,1.48015 0.160575,2.10464 -0.249105,0.29023 -0.599186,0.46749 -0.970614,0.50893 -0.5484,-0.63412 -1.077024,-1.28125 -1.582893,-1.94057 z m 30.797203,16.30455 c -1.900989,-0.0173 -3.841673,-0.20812 -5.795848,-0.57226 -0.101292,-0.83162 0.15053,-1.67073 0.696374,-2.30668 1.072002,-1.24897 2.960542,-1.39304 4.20962,-0.32112 0.919922,0.78966 1.266141,2.05867 0.889854,3.20006 z m 23.794779,-27.72288 c -1.071318,0.54519 -2.378248,0.39549 -3.298277,-0.39404 -1.249078,-1.07192 -1.393152,-2.960298 -0.321148,-4.209271 0.545722,-0.635812 1.336843,-1.012107 2.174534,-1.038168 0.656397,1.87616 1.139392,3.765279 1.444891,5.641479 z m -2.583944,-8.498777 c -1.274975,0.269124 -2.440422,0.948902 -3.300867,1.951391 -2.144129,2.498086 -1.855997,6.274586 0.642298,8.418536 1.557877,1.33692 3.671527,1.75875 5.583869,1.19479 0.335592,5.72875 -1.058761,11.19162 -4.340195,15.60717 L 37.715227,86.927384 c -0.625528,-0.536806 -1.567957,-0.464914 -2.10481,0.160564 -0.536851,0.625475 -0.464955,1.567826 0.160573,2.104632 l 40.73572,34.95797 c -3.867036,3.913 -9.0555,6.11965 -14.769458,6.65714 0.26739,-1.9756 -0.470227,-4.00063 -2.028104,-5.33754 -2.498295,-2.14395 -6.275116,-1.85585 -8.419243,0.64224 -0.860447,1.00249 -1.355621,2.25747 -1.428245,3.55841 -5.500672,-1.51602 -10.996608,-4.38681 -15.891819,-8.58771 -0.814689,-0.69913 -1.598235,-1.42711 -2.352581,-2.17821 0.39292,-0.24008 0.751883,-0.54027 1.059314,-0.89846 1.608127,-1.8736 1.391892,-4.70603 -0.481722,-6.3139 -1.823069,-1.56449 -4.553423,-1.40159 -6.181074,0.33405 -2.850177,-4.37146 -4.775043,-9.14492 -5.539297,-13.926217 -0.131611,-0.823217 0.116409,-1.672221 0.680238,-2.329128 0.203901,-0.237561 0.443057,-0.44315 0.710907,-0.610836 4.080052,-2.556987 8.04951,-6.020692 11.479142,-10.016496 3.429513,-3.995664 6.251149,-8.444142 8.160093,-12.864543 8e-4,-0.0023 0.0019,-0.0043 0.003,-0.0063 0.124785,-0.287758 0.290557,-0.553371 0.493121,-0.789376 0.563829,-0.656906 1.365453,-1.030827 2.199317,-1.025506 4.842149,0.02992 9.853023,1.208222 14.606347,3.362071 -1.468789,1.871967 -1.215637,4.59521 0.607432,6.159704 1.873615,1.60787 4.706306,1.391919 6.314434,-0.481682 0.307311,-0.358043 0.549723,-0.7585 0.727435,-1.183261 0.856888,0.631354 1.695375,1.2956 2.510063,1.994737 4.895356,4.201022 8.56699,9.197271 10.899875,14.403736 z"
           id="path11"
           style="fill:#1a1a1a;stroke-width:0.186574" />
        <path
           d="m 41.131042,105.34942 c -2.144125,2.49808 -1.855996,6.27458 0.642297,8.41853 2.498295,2.14395 6.275114,1.85584 8.41924,-0.64224 2.14413,-2.49809 1.856,-6.27459 -0.642295,-8.41854 -2.498293,-2.14395 -6.275113,-1.85584 -8.419242,0.64225 z m 6.796154,5.83222 c -1.072002,1.24897 -2.960544,1.39303 -4.209621,0.32112 -1.249076,-1.07192 -1.393151,-2.9603 -0.321149,-4.20927 1.072005,-1.24897 2.960546,-1.39304 4.209622,-0.32112 1.249078,1.07191 1.393276,2.96015 0.321148,4.20927 z"
           id="path12"
           style="stroke-width:0.186574" />
        <path
           d="m 56.283872,88.210266 c -2.14413,2.498088 -1.855998,6.27459 0.642295,8.418538 2.498295,2.143949 6.275112,1.855843 8.419242,-0.642245 2.144128,-2.498086 1.855998,-6.274586 -0.642297,-8.418535 -2.498293,-2.143948 -6.275113,-1.855842 -8.41924,0.642242 z m 6.796154,5.832221 c -1.072004,1.248974 -2.960546,1.393037 -4.209623,0.321122 -1.249076,-1.071913 -1.393151,-2.960296 -0.321147,-4.209269 1.072003,-1.248972 2.960544,-1.393035 4.20962,-0.321122 1.249078,1.071915 1.393274,2.960157 0.32115,4.209269 z"
           id="path13-9"
           style="stroke-width:0.186574" />
        <path
           style="fill:#000000;stroke:#000000;stroke-width:0.209144"
           d="m 33.031206,90.762396 c 0.758333,-2.988656 2.593255,-5.258969 5.276601,-6.528685 1.11252,-0.526407 1.987759,-0.718865 3.904874,-0.858629 2.145854,-0.156371 2.671585,-0.102443 3.995902,0.410501 1.45247,0.562561 4.160937,2.608205 4.868932,3.677384 0.330517,0.499122 0.332023,0.499018 0.604375,-0.03781 0.626014,-1.234054 2.459257,-3.158082 3.811288,-4.000044 5.904593,-3.676975 13.533278,-0.439517 15.129946,6.420837 0.640174,2.750639 0.182629,4.914543 -1.832574,8.666863 -1.879235,3.499117 -2.328726,4.900107 -2.199398,6.855147 0.211128,3.19155 -0.807129,2.18239 24.940254,24.71704 15.559594,13.61806 23.444504,20.68507 23.468004,21.03366 0.0458,0.67951 -2.60807,3.69235 -3.29294,3.73866 -0.2873,0.0193 -1.19621,-0.56154 -2.02237,-1.29246 l -1.50054,-1.32756 -0.81629,1.09486 c -1.09687,1.4711 -1.59223,1.73602 -3.39848,1.81675 -1.38755,0.0621 -1.60908,0.15097 -2.27453,0.91257 -0.66846,0.76502 -0.71413,0.94917 -0.48936,1.9728 0.16557,0.7539 0.14267,1.42572 -0.0689,2.02189 -0.36107,1.01704 -4.358848,5.60637 -5.132996,5.89241 -0.712654,0.26339 -2.079193,-0.50875 -3.142602,-1.77565 -0.847985,-1.01027 -0.884634,-1.13253 -0.78886,-2.63437 0.229648,-3.60157 -0.182341,-4.83463 -1.930968,-5.77932 -0.733291,-0.39616 -1.105545,-0.42366 -2.415604,-0.17835 -3.185305,0.59645 -3.885949,0.56515 -5.007094,-0.22358 -1.606343,-1.13009 -2.159641,-1.89112 -2.010529,-2.76549 0.07775,-0.45591 1.019666,-1.752 2.401723,-3.30469 2.35964,-2.65122 3.241076,-3.18769 4.780095,-2.90988 0.807006,0.14565 2.049791,-0.55199 2.411904,-1.35402 0.14239,-0.31529 0.169525,-0.95801 0.06026,-1.42826 -0.292197,-1.25819 0.08139,-2.62657 1.054148,-3.86084 0.473181,-0.60058 0.811397,-1.13932 0.751352,-1.19741 -0.05995,-0.0581 -6.35977,-5.5887 -13.999421,-12.2904 -15.395605,-13.50518 -15.283684,-13.42499 -18.399081,-13.18317 -1.904336,0.14785 -2.726025,0.54655 -6.432237,3.1215 -4.394532,3.05311 -6.962607,3.67005 -10.642971,2.55676 -1.871129,-0.56601 -4.399976,-2.52187 -5.499612,-4.25349 -2.070919,-3.26114 -1.958683,-7.57626 0.286957,-11.03219 l 0.588858,-0.90621 -1.844236,-1.66925 C 33.847599,98.728324 33.15783,97.436595 32.856523,94.571749 32.68127,92.905332 32.724028,91.973721 33.031371,90.762447 Z m 4.671787,4.993787 c 1.032438,2.068036 3.100364,3.245597 5.424502,3.088935 2.228536,-0.150205 3.975505,-1.423907 4.904823,-3.576018 0.656532,-1.52043 0.31703,-3.900841 -0.757089,-5.308035 -1.967708,-2.577945 -5.39656,-2.993661 -7.994387,-0.969261 -2.087547,1.626738 -2.742001,4.43251 -1.577849,6.764379 z m 2.780743,15.389877 c 0.554815,1.49205 2.566263,3.18736 4.181507,3.52431 2.022803,0.42199 3.827985,-0.22302 5.282291,-1.88744 1.769486,-2.02501 1.97229,-4.28408 0.592363,-6.59676 -1.949751,-3.26768 -7.145291,-3.44559 -9.326134,-0.31938 -1.167469,1.67358 -1.41235,3.44437 -0.730027,5.27927 z M 55.596272,93.976098 c 0.785195,2.111548 3.291687,3.808839 5.408661,3.66253 4.72896,-0.326716 7.01689,-5.748097 3.987325,-9.447901 -2.408773,-2.941658 -7.701445,-2.192291 -9.231677,1.307103 -0.790309,1.807306 -0.823291,2.70611 -0.164309,4.478268 z"
           id="path2-3" />
      </g>
    </g>
  </g>
</svg>
